<?xml version="1.0" encoding="UTF-8"?>
<svg version="1.1" xmlns="http://www.w3.org/2000/svg" width="300" height="300">
<path d="M0 0 C99 0 198 0 300 0 C300 99 300 198 300 300 C201 300 102 300 0 300 C0 201 0 102 0 0 Z " fill="#FEFEFD" transform="translate(0,0)"/>
<path d="M0 0 C-0.45002349 3.35533544 -0.911526 6.70899819 -1.375 10.0625 C-1.56449219 11.47692383 -1.56449219 11.47692383 -1.7578125 12.91992188 C-2.31561925 16.92218528 -2.91471848 20.70724255 -4.046875 24.59375 C-5.24430835 28.87310197 -5.54043046 33.02049754 -5.875 37.4375 C-6.66363948 46.59798189 -8.46172615 55.1776501 -11 64 C-11.598125 63.690625 -12.19625 63.38125 -12.8125 63.0625 C-15.08956772 61.89790296 -15.08956772 61.89790296 -18 61 C-25.52291811 80.49119692 -25.54353288 103.78430757 -17.75 123.09765625 C-12.15704206 135.1574718 -1.70824755 152.54199421 10.82421875 158.296875 C11.90123047 158.64492188 11.90123047 158.64492188 13 159 C13 159.66 13 160.32 13 161 C13.71414062 161.2784375 14.42828125 161.556875 15.1640625 161.84375 C18.87005648 163.35473377 22.46823395 165.07144198 26.0859375 166.78125 C44.8749671 174.63939643 67.04022759 173.38033938 86 167 C85.45899983 174.36305267 84.18579497 181.38101341 82.5 188.5625 C82.27441406 189.55830078 82.04882812 190.55410156 81.81640625 191.58007812 C80.13584877 198.86415123 80.13584877 198.86415123 79 200 C68.20468105 203.00357564 57.08363406 202.34115839 46 202 C44.69675781 201.96648437 43.39351563 201.93296875 42.05078125 201.8984375 C18.67602681 200.03272164 -7.76445948 185.40093402 -23.484375 168.296875 C-34.74277052 154.77168843 -34.74277052 154.77168843 -37 148 C-37.66 148 -38.32 148 -39 148 C-49.81938826 127.45505174 -57.8523143 99.53529135 -52.09765625 76.3671875 C-51.55431641 74.70042969 -51.55431641 74.70042969 -51 73 C-50.67334579 71.58057566 -50.36444799 70.15698645 -50.0703125 68.73046875 C-47.69749054 57.30253943 -44.38474683 47.38486889 -39 37 C-38.34 37 -37.68 37 -37 37 C-36.731875 36.28199219 -36.46375 35.56398437 -36.1875 34.82421875 C-31.47042604 23.60565141 -13.90279702 0 0 0 Z " fill="#8EC643" transform="translate(95,58)"/>
<path d="M0 0 C1.22009766 -0.01611328 2.44019531 -0.03222656 3.69726562 -0.04882812 C12.0449096 -0.053266 19.52999775 1.07104741 27.5625 3.3125 C28.29267334 3.51125732 29.02284668 3.71001465 29.77514648 3.91479492 C47.57413128 9.00846935 62.21928337 18.69231481 75.5625 31.3125 C76.27535156 31.9725 76.98820312 32.6325 77.72265625 33.3125 C82.73684907 38.10448389 87.00942442 43.33889168 90.5625 49.3125 C90.5625 49.9725 90.5625 50.6325 90.5625 51.3125 C91.2225 51.3125 91.8825 51.3125 92.5625 51.3125 C106.08918944 76.96253358 110.02227078 101.58404621 106.5625 130.3125 C105.9025 130.3125 105.2425 130.3125 104.5625 130.3125 C104.4078125 132.230625 104.4078125 132.230625 104.25 134.1875 C103.30238562 142.48237108 100.64544276 149.6390409 96.74609375 156.98828125 C95.51623778 159.29571562 95.51623778 159.29571562 94.640625 161.7734375 C91.21887939 169.83189636 84.50867827 176.96256888 78.5625 183.3125 C77.81226563 184.11558594 77.06203125 184.91867188 76.2890625 185.74609375 C70.58243582 191.65974316 64.56269271 196.96168578 57.5625 201.3125 C56.9025 201.3125 56.2425 201.3125 55.5625 201.3125 C56.3921959 193.20198953 57.52004428 185.1353058 58.66430664 177.06445312 C59.00009835 174.68680359 59.32915011 172.30827771 59.65820312 169.9296875 C59.87458351 168.39837859 60.09136663 166.86712652 60.30859375 165.3359375 C60.40450302 164.63471771 60.50041229 163.93349792 60.59922791 163.21102905 C61.23836489 158.77623226 62.28179672 154.60157106 63.5625 150.3125 C63.97618203 148.00660572 64.35284484 145.69368221 64.6875 143.375 C64.85507813 142.23160156 65.02265625 141.08820313 65.1953125 139.91015625 C65.31648438 139.05292969 65.43765625 138.19570312 65.5625 137.3125 C67.8725 137.9725 70.1825 138.6325 72.5625 139.3125 C72.75585938 138.73242188 72.94921875 138.15234375 73.1484375 137.5546875 C73.40882813 136.77351562 73.66921875 135.99234375 73.9375 135.1875 C74.21078125 134.36121094 74.4840625 133.53492188 74.765625 132.68359375 C75.377646 130.86253126 76.02505205 129.05333053 76.6875 127.25 C80.75824254 113.58393577 80.22759272 93.9078106 73.625 80.9375 C73.27953125 80.34710938 72.9340625 79.75671875 72.578125 79.1484375 C71.39916558 77.01724163 70.67312796 74.86255965 69.875 72.5625 C63.61137397 56.6962722 48.44051997 43.93067511 33.30859375 36.7734375 C30.41208013 35.55796798 27.50392947 34.41393513 24.5625 33.3125 C23.29599609 32.7865625 23.29599609 32.7865625 22.00390625 32.25 C5.567309 25.93834666 -13.92081167 29.04879349 -30.4375 33.3125 C-29.95279965 22.76608894 -28.42975129 12.66218279 -26.4375 2.3125 C-17.5743246 0.52719302 -9.02969848 -0.02377488 0 0 Z " fill="#31363D" transform="translate(152.4375,41.6875)"/>
<path d="M0 0 C1.5420258 3.9989869 0.50033915 7.65249364 -0.375 11.6875 C-0.51421875 12.37650391 -0.6534375 13.06550781 -0.796875 13.77539062 C-1.85594915 18.85594915 -1.85594915 18.85594915 -3 20 C-3.15686249 21.55948542 -3.25076639 23.12542668 -3.31640625 24.69140625 C-3.35830078 25.63564453 -3.40019531 26.57988281 -3.44335938 27.55273438 C-3.48267578 28.54595703 -3.52199219 29.53917969 -3.5625 30.5625 C-3.60568359 31.55958984 -3.64886719 32.55667969 -3.69335938 33.58398438 C-3.79980298 36.0558415 -3.90181928 38.5278031 -4 41 C-4.33 41 -4.66 41 -5 41 C-5.02917234 37.12501596 -5.04685673 33.25006042 -5.0625 29.375 C-5.07087891 28.28058594 -5.07925781 27.18617188 -5.08789062 26.05859375 C-5.09111328 24.99511719 -5.09433594 23.93164062 -5.09765625 22.8359375 C-5.10289307 21.86188965 -5.10812988 20.8878418 -5.11352539 19.88427734 C-4.99414506 16.85124679 -4.55866724 13.98084732 -4 11 C-3.34 11 -2.68 11 -2 11 C-2.04125 10.113125 -2.0825 9.22625 -2.125 8.3125 C-2.00102754 5.02722987 -1.38612096 2.94550705 0 0 Z " fill="#D8EBBD" transform="translate(46,118)"/>
<path d="M0 0 C0.33 0 0.66 0 1 0 C0.67 7.92 0.34 15.84 0 24 C0.66 24 1.32 24 2 24 C2.33 28.95 2.66 33.9 3 39 C-1.39527653 32.4070852 -1.29883022 24.57436336 -1.1875 16.875 C-1.18685547 16.02035156 -1.18621094 15.16570312 -1.18554688 14.28515625 C-1.15195464 9.42547908 -0.81159081 4.79163215 0 0 Z " fill="#E2F1CA" transform="translate(72,136)"/>
<path d="M0 0 C0.33 0 0.66 0 1 0 C0.65179767 10.69821629 -0.09142564 20.64620701 -3 31 C-3.33 31 -3.66 31 -4 31 C-4.09138894 26.61333077 -3.88841898 22.46527931 -3.28125 18.10546875 C-2.98478686 15.88611275 -2.77441496 13.66639128 -2.5625 11.4375 C-2.13211391 7.43907439 -1.22157141 3.82759042 0 0 Z " fill="#A4CB6F" transform="translate(88,88)"/>
<path d="M0 0 C0.33 0.99 0.66 1.98 1 3 C-0.57382947 4.65492374 -2.15942902 6.29866024 -3.75 7.9375 C-4.63171875 8.85402344 -5.5134375 9.77054688 -6.421875 10.71484375 C-8.80176695 12.82429343 -9.9099375 13.66067071 -13 14 C-11.54238919 10.63163511 -9.6759774 8.43494248 -7.0625 5.875 C-6.37285156 5.19179687 -5.68320313 4.50859375 -4.97265625 3.8046875 C-3 2 -3 2 0 0 Z " fill="#A5CF6D" transform="translate(80,67)"/>
<path d="M0 0 C6.60753814 -0.37244996 13.06227925 -0.28671103 19 3 C19.33 3.99 19.66 4.98 20 6 C19.47792969 5.80664062 18.95585937 5.61328125 18.41796875 5.4140625 C12.36073009 3.2712215 6.33891775 2.00711777 0 1 C0 0.67 0 0.34 0 0 Z " fill="#484A4D" transform="translate(161,70)"/>
<path d="M0 0 C0.33 0 0.66 0 1 0 C1.99250545 5.70690634 2.10477512 11.21408489 2 17 C1.67 17 1.34 17 1 17 C1 14.69 1 12.38 1 10 C0.01 9.67 -0.98 9.34 -2 9 C-1.34 8.67 -0.68 8.34 0 8 C0 5.36 0 2.72 0 0 Z " fill="#575B5F" transform="translate(258,130)"/>
<path d="M0 0 C0.66 0 1.32 0 2 0 C4.5393228 3.41831915 5.3636198 5.75776898 5 10 C2.66063182 7.87330165 1.19346152 5.93775144 0 3 C0 2.01 0 1.02 0 0 Z " fill="#3F4146" transform="translate(246,99)"/>
<path d="M0 0 C0.33 0 0.66 0 1 0 C1 1.65 1 3.3 1 5 C2.65 5 4.3 5 6 5 C3.38058783 6.74627478 1.96175123 7.38722388 -1 8 C-0.67 5.36 -0.34 2.72 0 0 Z " fill="#292A2C" transform="translate(123,67)"/>
<path d="M0 0 C2.5 2.3125 2.5 2.3125 5 5 C5 5.99 5 6.98 5 8 C4.01 7.67 3.02 7.34 2 7 C0.8125 3.4375 0.8125 3.4375 0 0 Z " fill="#D5EAB6" transform="translate(58,208)"/>
<path d="M0 0 C0.33 0 0.66 0 1 0 C0.67 4.62 0.34 9.24 0 14 C-0.33 14 -0.66 14 -1 14 C-1.93402724 8.58264203 -2.20808081 5.19548425 0 0 Z " fill="#A1CB6A" transform="translate(92,65)"/>
<path d="M0 0 C0.66 0.99 1.32 1.98 2 3 C1.3125 6.125 1.3125 6.125 0 9 C-0.99 9.33 -1.98 9.66 -3 10 C-2.01 6.7 -1.02 3.4 0 0 Z " fill="#9FC863" transform="translate(51,105)"/>
</svg>
